PathFileType	4	(X/Y/Z)	/Users/itak/Documents/Research/Walk-IL/dataset/trc/00179_00008.trc
DataRate	CameraRate	NumFrames	NumMarkers	Units	OrigDataRate	OrigDataStartFrame	OrigNumFrames
100.000000	100.000000	4	53	mm	100.000000	93	745
Frame#	Time	RPSI			LPSI			L3			STRN			T10			C7			CLAV			RBAK			LBAK			LSHO			LUPA			LAEL			LAOL			LWTS			LWPS			LFRA			LIFD			LHPS			LHTS			RSHO			RUPA			RAEL			RAOL			RWTS			RWPS			RFRA			RIFD			RHTS			RHPS			RBHD			LFHD			RFHD			LBHD			LHIP			RHIP			RASI			LASI			LKNE			LTHI			LANK			LTIP			LTOE			LMT1			LMT5			LHEE			RKNE			RTHI			RANK			RTIP			RTOE			RMT1			RMT5			RHEE			
		X1	Y1	Z1	X2	Y2	Z2	X3	Y3	Z3	X4	Y4	Z4	X5	Y5	Z5	X6	Y6	Z6	X7	Y7	Z7	X8	Y8	Z8	X9	Y9	Z9	X10	Y10	Z10	X11	Y11	Z11	X12	Y12	Z12	X13	Y13	Z13	X14	Y14	Z14	X15	Y15	Z15	X16	Y16	Z16	X17	Y17	Z17	X18	Y18	Z18	X19	Y19	Z19	X20	Y20	Z20	X21	Y21	Z21	X22	Y22	Z22	X23	Y23	Z23	X24	Y24	Z24	X25	Y25	Z25	X26	Y26	Z26	X27	Y27	Z27	X28	Y28	Z28	X29	Y29	Z29	X30	Y30	Z30	X31	Y31	Z31	X32	Y32	Z32	X33	Y33	Z33	X34	Y34	Z34	X35	Y35	Z35	X36	Y36	Z36	X37	Y37	Z37	X38	Y38	Z38	X39	Y39	Z39	X40	Y40	Z40	X41	Y41	Z41	X42	Y42	Z42	X43	Y43	Z43	X44	Y44	Z44	X45	Y45	Z45	X46	Y46	Z46	X47	Y47	Z47	X48	Y48	Z48	X49	Y49	Z49	X50	Y50	Z50	X51	Y51	Z51	X52	Y52	Z52	X53	Y53	Z53	

94	0.93	-4.510471820831299	1049.101684570312	1464.211059570312	-20.22105598449707	1047.421630859375	1342.979125976562	-6.536579132080078	1087.312255859375	1408.095336914062	273.8713989257812	1258.352783203125	1363.169189453125	-20.67511367797852	1246.276611328125	1413.679931640625	76.9974365234375	1504.078857421875	1384.681030273438	260.0064086914062	1375.45751953125	1353.634033203125	6.750515937805176	1343.595581054688	1508.845703125	47.28630065917969	1479.612670898438	1289.337280273438	104.8792419433594	1456.569946289062	1198.43115234375	35.03759002685547	1332.502685546875	1138.64404296875	2.818751811981201	1118.518432617188	1125.399780273438	-15.94516658782959	1106.33056640625	1212.824584960938	93.514404296875	876.4918212890625	1116.278442382812	-0.5928681492805481	863.699951171875	1107.56103515625	-1.997783184051514	1007.211059570312	1109.107543945312	96.79802703857422	688.0313720703125	1125.386108398438	15.54896640777588	791.790771484375	1106.273193359375	87.30270385742188	797.5535888671875	1093.939575195312	170.25146484375	1478.397216796875	1550.724975585938	154.2536315917969	1418.79833984375	1625.481079101562	110.4514465332031	1143.865478515625	1709.688842773438	83.55028533935547	1127.893432617188	1617.163452148438	206.4788818359375	895.0810546875	1697.835327148438	140.0247955322266	897.743408203125	1757.265258789062	127.5907592773438	1071.458129882812	1731.893188476562	182.4382781982422	704.8551025390625	1697.82080078125	215.1329345703125	797.7588500976562	1714.103759765625	152.1661529541016	811.699462890625	1760.875854492188	201.2118682861328	1660.880615234375	1437.560913085938	289.3822326660156	1667.903930664062	1237.963134765625	352.3293762207031	1673.706787109375	1351.3505859375	128.2866668701172	1663.2041015625	1320.673950195312	64.538330078125	979.578369140625	1208.845703125	160.7709808349609	995.9588623046875	1569.861694335938	239.0912322998047	1014.725402832031	1507.723388671875	196.2805328369141	1010.25927734375	1253.911254882812	314.4817199707031	535.0513916015625	1170.247192382812	239.8734283447266	661.23681640625	1162.6767578125	403.5357971191406	62.09236526489258	1129.041259765625	350.5709533691406	305.6246337890625	1134.867065429688	600.1021728515625	146.1094818115234	1100.37646484375	569.8599243164062	126.1860046386719	1157.456787109375	494.3487548828125	90.10312652587891	1065.08837890625	373.3688049316406	49.2381477355957	1207.088012695312	84.15010070800781	502.1820983886719	1549.90478515625	187.5791015625	759.5668334960938	1567.19189453125	-118.2649383544922	41.40918350219727	1555.64599609375	62.07424163818359	380.4277954101562	1536.977294921875	104.8135375976562	48.50469589233398	1533.1494140625	53.8443603515625	48.36156845092773	1485.750732421875	-8.118954658508301	37.52647018432617	1600.687866210938	-165.8515625	44.32979202270508	1484.066162109375	
95	0.9400000000000001	2.1166832447052	1046.80810546875	1462.286010742188	-13.79550552368164	1045.062622070312	1341.067749023438	-0.01588768884539604	1085.043334960938	1406.06103515625	280.0123596191406	1256.190551757812	1360.295654296875	-14.27353668212891	1244.103759765625	1411.607299804688	83.32566070556641	1502.0029296875	1381.763793945312	266.187744140625	1373.285522460938	1350.426513671875	13.24157047271729	1341.935913085938	1506.553833007812	53.34018707275391	1477.318359375	1286.55810546875	110.5078735351562	1453.960083007812	1195.560668945312	39.98703765869141	1329.956665039062	1136.451171875	6.509537696838379	1116.24169921875	1123.9140625	-11.52231216430664	1104.312744140625	1211.618041992188	94.51108551025391	873.2302856445312	1114.626098632812	0.2625868618488312	861.4461059570312	1106.7900390625	0.4693310260772705	1005.0302734375	1107.968017578125	95.61647033691406	684.859130859375	1124.392822265625	15.49730587005615	789.4312133789062	1105.542358398438	87.15205383300781	794.2876586914062	1092.55029296875	177.0813140869141	1476.727905273438	1547.596435546875	161.4461822509766	1417.222778320312	1622.562133789062	118.6156311035156	1142.42041015625	1707.69677734375	91.19567108154297	1126.238159179688	1615.31103515625	214.6444244384766	893.6668090820312	1695.820556640625	148.6211547851562	896.5220336914062	1755.751220703125	135.9369506835938	1070.10791015625	1729.96435546875	190.634521484375	703.4033813476562	1696.558349609375	223.4688873291016	796.384765625	1712.32080078125	160.8206176757812	810.4801635742188	1759.537231445312	207.72265625	1658.895629882812	1434.226928710938	294.4815063476562	1665.664306640625	1233.907958984375	358.0938415527344	1671.798706054688	1346.878295898438	133.9010009765625	1660.8037109375	1317.501586914062	70.90634155273438	976.9030151367188	1207.086303710938	167.3240356445312	994.2540893554688	1567.972412109375	245.5242462158203	1012.804382324219	1505.6845703125	202.7238159179688	1007.883422851562	1251.828002929688	319.8439025878906	532.915283203125	1168.82861328125	245.0103149414062	658.1270751953125	1160.945678710938	419.2711486816406	62.63765716552734	1125.61669921875	360.4328308105469	305.026611328125	1132.596557617188	613.9644165039062	150.3960723876953	1094.91455078125	584.60400390625	129.9170989990234	1152.306762695312	509.0238342285156	92.28438568115234	1060.775024414062	390.2469787597656	49.31998443603516	1203.999633789062	88.22227478027344	501.0267333984375	1548.857421875	193.0305023193359	757.8814086914062	1565.709350585938	-118.1088104248047	41.80298233032227	1555.435424804688	65.09767913818359	379.2441101074219	1536.09423828125	105.1259384155273	48.13956069946289	1533.116455078125	54.08884811401367	48.24303436279297	1485.806762695312	-8.121895790100098	37.40965270996094	1600.768432617188	-165.6370697021484	44.68853759765625	1483.840087890625	
96	0.9500000000000001	8.974643707275391	1044.413208007812	1460.23388671875	-7.168718338012695	1042.66455078125	1339.031372070312	6.676711082458496	1082.759643554688	1403.9072265625	286.3507080078125	1254.033081054688	1357.2978515625	-7.711441993713379	1241.943481445312	1409.37353515625	89.77678680419922	1499.896606445312	1378.673461914062	272.531005859375	1371.106811523438	1347.095825195312	19.94387435913086	1340.171264648438	1504.078002929688	59.5520133972168	1474.961791992188	1283.60400390625	116.3149108886719	1451.297607421875	1192.531127929688	45.14876556396484	1327.347900390625	1134.108520507812	10.43650054931641	1113.918701171875	1122.270263671875	-6.86048412322998	1102.239379882812	1210.245361328125	95.65644073486328	869.9390869140625	1112.851440429688	1.325459361076355	859.1979370117188	1105.956665039062	3.155219554901123	1002.822509765625	1106.68310546875	94.55764007568359	681.6666870117188	1123.248291015625	15.60776615142822	787.0828247070312	1104.693359375	87.13198089599609	790.9993896484375	1091.049682617188	183.9917755126953	1475.048095703125	1544.309692382812	168.7202301025391	1415.630126953125	1619.49267578125	126.8899536132812	1140.915649414062	1705.466674804688	98.95689392089844	1124.579711914062	1613.24365234375	223.0576477050781	892.2413940429688	1693.555908203125	157.4678039550781	895.2573852539062	1753.97265625	144.4301910400391	1068.70849609375	1727.797119140625	199.1690826416016	701.9339599609375	1694.96875	232.0751647949219	794.9973754882812	1710.252075195312	169.7264099121094	809.2136840820312	1757.894897460938	214.3462371826172	1656.920288085938	1430.789184570312	299.6370239257812	1663.43798828125	1229.695190429688	363.9063110351562	1669.9345703125	1342.24267578125	139.5857543945312	1658.373779296875	1314.161987304688	77.47373962402344	974.2415771484375	1205.174926757812	174.0407104492188	992.4814453125	1565.96435546875	252.1275482177734	1010.819396972656	1503.51513671875	209.3872985839844	1005.495178222656	1249.594116210938	325.5152587890625	530.7796630859375	1167.205932617188	250.5326385498047	655.0970458984375	1159.0302734375	433.8382263183594	62.92329406738281	1122.605834960938	369.8811950683594	304.2506408691406	1130.39794921875	626.65869140625	153.8082733154297	1089.0224609375	598.3516235351562	133.0314178466797	1146.857543945312	522.3406372070312	93.77735900878906	1056.519409179688	406.1731262207031	49.43905639648438	1201.423095703125	92.28251647949219	499.8511962890625	1547.739013671875	198.5620880126953	756.1453857421875	1564.127197265625	-117.9349746704102	42.22787094116211	1555.241455078125	68.11814880371094	378.0717468261719	1535.199340820312	105.4427032470703	47.84127807617188	1533.120971679688	54.31557846069336	48.15205383300781	1485.87890625	-8.132506370544434	37.26914215087891	1600.867553710938	-165.41845703125	45.13301849365234	1483.607421875	
97	0.96	16.0471076965332	1041.983276367188	1458.020385742188	-0.3349291682243347	1040.263916015625	1336.843017578125	13.53616237640381	1080.470947265625	1401.617797851562	292.895751953125	1251.898559570312	1354.167846679688	-0.975446879863739	1239.7958984375	1406.97998046875	96.35776519775391	1497.776977539062	1375.412109375	279.0417175292969	1368.936279296875	1343.634033203125	26.86496162414551	1338.306518554688	1501.419189453125	65.91527557373047	1472.562255859375	1280.481079101562	122.2975006103516	1448.60400390625	1189.344360351562	50.51595687866211	1324.6943359375	1131.621948242188	14.60959148406982	1111.570068359375	1120.469848632812	-1.953731060028076	1100.126342773438	1208.705688476562	96.97805023193359	866.6397705078125	1110.950439453125	2.614646434783936	856.9780883789062	1105.064208984375	6.075880527496338	1000.604614257812	1105.252075195312	93.62953186035156	678.4678955078125	1121.942749023438	15.89610195159912	784.7642822265625	1103.717895507812	87.27435302734375	787.7155151367188	1089.433471679688	190.9940643310547	1473.37109375	1540.86376953125	176.0857086181641	1414.037353515625	1616.267944335938	135.2674560546875	1139.37158203125	1702.9912109375	106.8507690429688	1122.912231445312	1610.944946289062	231.717529296875	890.8233032226562	1691.047241210938	166.5365447998047	893.962158203125	1751.912353515625	153.0604553222656	1067.276977539062	1725.3828125	208.0421752929688	700.467041015625	1693.04150390625	240.9504241943359	793.6151733398438	1707.90087890625	178.8697509765625	807.9168701171875	1755.937255859375	221.0601196289062	1654.969848632812	1427.230224609375	304.8551940917969	1661.246948242188	1225.326049804688	369.7696228027344	1668.133178710938	1337.448486328125	145.3476104736328	1655.930541992188	1310.657958984375	84.25791168212891	971.6436767578125	1203.09033203125	180.8920135498047	990.6560668945312	1563.829345703125	258.8944091796875	1008.787841796875	1501.22216796875	216.2870788574219	1003.11376953125	1247.213134765625	331.5044250488281	528.6502685546875	1165.340087890625	256.4586791992188	652.1969604492188	1156.901611328125	447.2318725585938	62.83892822265625	1120.038330078125	378.9238891601562	303.2405700683594	1128.268676757812	638.1956787109375	156.2379913330078	1082.815307617188	611.0818481445312	135.4256591796875	1141.196899414062	534.3175659179688	94.46842193603516	1052.389038085938	421.0948791503906	49.48958969116211	1199.365478515625	96.29681396484375	498.6764831542969	1546.549438476562	204.1463928222656	754.3670654296875	1562.445922851562	-117.7509613037109	42.68023681640625	1555.072143554688	71.11416625976562	376.9354248046875	1534.297241210938	105.7596969604492	47.62221908569336	1533.166259765625	54.51749038696289	48.09724044799805	1485.964721679688	-8.15339183807373	37.10764312744141	1600.984130859375	-165.2099151611328	45.68997955322266	1483.377563476562	
